G04*
G04 #@! TF.GenerationSoftware,Altium Limited,Altium Designer,23.8.1 (32)*
G04*
G04 Layer_Physical_Order=1*
G04 Layer_Color=255*
%FSLAX44Y44*%
%MOMM*%
G71*
G04*
G04 #@! TF.SameCoordinates,1C6102A1-C030-4D01-BDD8-3087C58EC81D*
G04*
G04*
G04 #@! TF.FilePolarity,Positive*
G04*
G01*
G75*
%ADD11C,0.2540*%
%ADD13R,1.6510X0.4318*%
%ADD17C,2.0000*%
G04:AMPARAMS|DCode=18|XSize=2mm|YSize=2mm|CornerRadius=0.5mm|HoleSize=0mm|Usage=FLASHONLY|Rotation=270.000|XOffset=0mm|YOffset=0mm|HoleType=Round|Shape=RoundedRectangle|*
%AMROUNDEDRECTD18*
21,1,2.0000,1.0000,0,0,270.0*
21,1,1.0000,2.0000,0,0,270.0*
1,1,1.0000,-0.5000,-0.5000*
1,1,1.0000,-0.5000,0.5000*
1,1,1.0000,0.5000,0.5000*
1,1,1.0000,0.5000,-0.5000*
%
%ADD18ROUNDEDRECTD18*%
G04:AMPARAMS|DCode=19|XSize=2mm|YSize=2mm|CornerRadius=0mm|HoleSize=0mm|Usage=FLASHONLY|Rotation=270.000|XOffset=0mm|YOffset=0mm|HoleType=Round|Shape=Octagon|*
%AMOCTAGOND19*
4,1,8,-0.5000,-1.0000,0.5000,-1.0000,1.0000,-0.5000,1.0000,0.5000,0.5000,1.0000,-0.5000,1.0000,-1.0000,0.5000,-1.0000,-0.5000,-0.5000,-1.0000,0.0*
%
%ADD19OCTAGOND19*%

D11*
X742500Y810000D02*
X795250Y862750D01*
X818678D01*
X771750Y869250D02*
X818678D01*
X742500Y840000D02*
X771750Y869250D01*
X742875Y875375D02*
X818303D01*
X818678Y875750D01*
X742500Y875000D02*
X742875Y875375D01*
X742500Y910000D02*
X770250Y882250D01*
X818678D01*
X742500Y945000D02*
X747104D01*
X803552Y888552D02*
X803750Y888750D01*
X747104Y945000D02*
X803552Y888552D01*
X803750Y888750D02*
X818678D01*
X742500Y942500D02*
X744711Y940289D01*
X805000Y899626D02*
Y942500D01*
Y899626D02*
X808845Y895781D01*
X909750Y862750D02*
X962500Y810000D01*
X891322Y862750D02*
X909750D01*
X818147Y862219D02*
X818678Y862750D01*
X770000Y817559D02*
X808161Y855719D01*
X770000Y767500D02*
Y817559D01*
X891322Y869250D02*
X933250D01*
X962500Y840000D01*
X808161Y855719D02*
X818147D01*
X818678Y856250D01*
X940000Y767500D02*
Y817559D01*
X901840Y855719D02*
X940000Y817559D01*
X891853Y855719D02*
X901840D01*
X891322Y856250D02*
X891853Y855719D01*
X805000Y767500D02*
Y845374D01*
X808845Y849219D01*
X818147D01*
X818678Y849750D01*
X891853Y849219D02*
X901155D01*
X905000Y767500D02*
Y845375D01*
X891322Y849750D02*
X891853Y849219D01*
X901155D02*
X905000Y845375D01*
X870000Y802500D02*
X891322Y823822D01*
X870000Y767500D02*
Y802500D01*
X891322Y823822D02*
Y843250D01*
X820000Y825000D02*
X837500Y807500D01*
Y767500D02*
Y807500D01*
X820000Y825000D02*
Y842361D01*
X818678Y843250D02*
X819111D01*
X820000Y842361D01*
X962125Y875375D02*
X962500Y875000D01*
X891322Y875750D02*
X891697Y875375D01*
X962125D01*
X891322Y882250D02*
X934750D01*
X962500Y910000D01*
X891322Y888750D02*
X906250D01*
X962500Y945000D01*
X788810Y958690D02*
Y971190D01*
X787500Y972500D02*
X788810Y971190D01*
Y958690D02*
X805000Y942500D01*
X808845Y895781D02*
X818147D01*
X818678Y895250D01*
X825000Y950000D02*
Y975000D01*
X818678Y901750D02*
Y943678D01*
X825000Y972500D02*
Y975000D01*
X818678Y943678D02*
X825000Y950000D01*
X885000D02*
X891322Y943678D01*
X905000Y942500D02*
X921190Y958690D01*
X901155Y895781D02*
X905000Y899626D01*
Y942500D01*
X891322Y901750D02*
Y943678D01*
X921190Y958690D02*
Y971190D01*
X922500Y972500D01*
X891853Y895781D02*
X901155D01*
X891322Y895250D02*
X891853Y895781D01*
X885000Y950000D02*
Y972500D01*
D13*
X891322Y901750D02*
D03*
Y895250D02*
D03*
Y888750D02*
D03*
Y882250D02*
D03*
Y875750D02*
D03*
Y869250D02*
D03*
Y862750D02*
D03*
Y856250D02*
D03*
Y849750D02*
D03*
Y843250D02*
D03*
X818678D02*
D03*
Y849750D02*
D03*
Y856250D02*
D03*
Y862750D02*
D03*
Y869250D02*
D03*
Y875750D02*
D03*
Y882250D02*
D03*
Y888750D02*
D03*
Y895250D02*
D03*
Y901750D02*
D03*
D17*
X742500Y875000D02*
D03*
Y810000D02*
D03*
Y840000D02*
D03*
Y910000D02*
D03*
Y945000D02*
D03*
X770000Y767500D02*
D03*
X805000D02*
D03*
X905000D02*
D03*
X870000D02*
D03*
X940000D02*
D03*
X962500Y810000D02*
D03*
Y840000D02*
D03*
Y910000D02*
D03*
Y875000D02*
D03*
Y945000D02*
D03*
X787500Y972500D02*
D03*
X922500D02*
D03*
X837500Y767500D02*
D03*
D18*
X885000Y972500D02*
D03*
D19*
X825000D02*
D03*
M02*
