G04*
G04 #@! TF.GenerationSoftware,Altium Limited,Altium Designer,23.8.1 (32)*
G04*
G04 Layer_Color=2752767*
%FSLAX44Y44*%
%MOMM*%
G71*
G04*
G04 #@! TF.SameCoordinates,1C6102A1-C030-4D01-BDD8-3087C58EC81D*
G04*
G04*
G04 #@! TF.FilePolarity,Positive*
G04*
G01*
G75*
%ADD22C,0.1693*%
D22*
X747580Y875000D02*
G03*
X747580Y875000I-5080J0D01*
G01*
Y810000D02*
G03*
X747580Y810000I-5080J0D01*
G01*
Y840000D02*
G03*
X747580Y840000I-5080J0D01*
G01*
Y910000D02*
G03*
X747580Y910000I-5080J0D01*
G01*
Y945000D02*
G03*
X747580Y945000I-5080J0D01*
G01*
X775080Y767500D02*
G03*
X775080Y767500I-5080J0D01*
G01*
X810080D02*
G03*
X810080Y767500I-5080J0D01*
G01*
X910080D02*
G03*
X910080Y767500I-5080J0D01*
G01*
X875080D02*
G03*
X875080Y767500I-5080J0D01*
G01*
X945080D02*
G03*
X945080Y767500I-5080J0D01*
G01*
X890080Y972500D02*
G03*
X890080Y972500I-5080J0D01*
G01*
X967580Y810000D02*
G03*
X967580Y810000I-5080J0D01*
G01*
Y840000D02*
G03*
X967580Y840000I-5080J0D01*
G01*
Y910000D02*
G03*
X967580Y910000I-5080J0D01*
G01*
Y875000D02*
G03*
X967580Y875000I-5080J0D01*
G01*
Y945000D02*
G03*
X967580Y945000I-5080J0D01*
G01*
X792580Y972500D02*
G03*
X792580Y972500I-5080J0D01*
G01*
X830080D02*
G03*
X830080Y972500I-5080J0D01*
G01*
X927580D02*
G03*
X927580Y972500I-5080J0D01*
G01*
X842580Y767500D02*
G03*
X842580Y767500I-5080J0D01*
G01*
M02*
