%TF.GenerationSoftware,Altium Limited,Altium Designer,23.8.1 (32)*%
G04 Layer_Color=16711935*
%FSLAX43Y43*%
%MOMM*%
%TF.SameCoordinates,582071CA-0EC2-41F6-B836-5D022497499C*%
%TF.FilePolarity,Negative*%
%TF.FileFunction,Soldermask,Bot*%
%TF.Part,Single*%
G01*
G75*
%TA.AperFunction,ViaPad*%
%ADD18C,2.203*%
G04:AMPARAMS|DCode=19|XSize=2.203mm|YSize=2.203mm|CornerRadius=0.602mm|HoleSize=0mm|Usage=FLASHONLY|Rotation=270.000|XOffset=0mm|YOffset=0mm|HoleType=Round|Shape=RoundedRectangle|*
%AMROUNDEDRECTD19*
21,1,2.203,1.000,0,0,270.0*
21,1,1.000,2.203,0,0,270.0*
1,1,1.203,-0.500,-0.500*
1,1,1.203,-0.500,0.500*
1,1,1.203,0.500,0.500*
1,1,1.203,0.500,-0.500*
%
%ADD19ROUNDEDRECTD19*%
G04:AMPARAMS|DCode=20|XSize=2.203mm|YSize=2.203mm|CornerRadius=0mm|HoleSize=0mm|Usage=FLASHONLY|Rotation=270.000|XOffset=0mm|YOffset=0mm|HoleType=Round|Shape=Octagon|*
%AMOCTAGOND20*
4,1,8,-0.551,-1.102,0.551,-1.102,1.102,-0.551,1.102,0.551,0.551,1.102,-0.551,1.102,-1.102,0.551,-1.102,-0.551,-0.551,-1.102,0.0*
%
%ADD20OCTAGOND20*%

D18*
X74250Y87500D02*
D03*
Y81000D02*
D03*
Y84000D02*
D03*
Y91000D02*
D03*
Y94500D02*
D03*
X77000Y76750D02*
D03*
X80500D02*
D03*
X90500D02*
D03*
X87000D02*
D03*
X94000D02*
D03*
X96250Y81000D02*
D03*
Y84000D02*
D03*
Y91000D02*
D03*
Y87500D02*
D03*
Y94500D02*
D03*
X78750Y97250D02*
D03*
X92250D02*
D03*
X83750Y76750D02*
D03*
D19*
X88500Y97250D02*
D03*
D20*
X82500D02*
D03*
%TF.MD5,77734d339b519cabeaf87b6c50749603*%
M02*
