%TF.GenerationSoftware,Altium Limited,Altium Designer,23.8.1 (32)*%
G04 Layer_Color=16711935*
%FSLAX43Y43*%
%MOMM*%
%TF.SameCoordinates,582071CA-0EC2-41F6-B836-5D022497499C*%
%TF.FilePolarity,Positive*%
%TF.FileFunction,Other,Mechanical_13*%
%TF.Part,Single*%
G01*
G75*
%TA.AperFunction,NonConductor*%
%ADD17C,0.076*%
%ADD21C,0.000*%
%ADD22C,0.025*%
D17*
X82770Y90708D02*
X83616Y89862D01*
X82770D02*
X83616Y90708D01*
X82770Y90285D02*
X83616D01*
X83193Y89862D02*
Y90708D01*
D21*
X85195Y90996D02*
G03*
X85805Y90996I305J0D01*
G01*
D22*
X82706Y83504D02*
Y90997D01*
X88294D01*
Y83504D02*
Y90997D01*
X82706Y83504D02*
X88294D01*
Y90365D02*
X89602D01*
Y89984D02*
Y90365D01*
X88294Y89984D02*
X89602D01*
X88294D02*
Y90365D01*
Y89715D02*
X89602D01*
Y89334D02*
Y89715D01*
X88294Y89334D02*
X89602D01*
X88294D02*
Y89715D01*
Y89066D02*
X89602D01*
Y88685D02*
Y89066D01*
X88294Y88685D02*
X89602D01*
X88294D02*
Y89066D01*
Y88416D02*
X89602D01*
Y88035D02*
Y88416D01*
X88294Y88035D02*
X89602D01*
X88294D02*
Y88416D01*
Y87765D02*
X89602D01*
Y87384D02*
Y87765D01*
X88294Y87384D02*
X89602D01*
X88294D02*
Y87765D01*
Y87116D02*
X89602D01*
Y86734D02*
Y87116D01*
X88294Y86734D02*
X89602D01*
X88294D02*
Y87116D01*
Y86466D02*
X89602D01*
Y86085D02*
Y86466D01*
X88294Y86085D02*
X89602D01*
X88294D02*
Y86466D01*
Y85816D02*
X89602D01*
Y85435D02*
Y85816D01*
X88294Y85435D02*
X89602D01*
X88294D02*
Y85816D01*
Y85165D02*
X89602D01*
Y84784D02*
Y85165D01*
X88294Y84784D02*
X89602D01*
X88294D02*
Y85165D01*
Y84516D02*
X89602D01*
Y84134D02*
Y84516D01*
X88294Y84134D02*
X89602D01*
X88294D02*
Y84516D01*
X81398Y84134D02*
X82706D01*
X81398D02*
Y84516D01*
X82706D01*
Y84134D02*
Y84516D01*
X81398Y84784D02*
X82706D01*
X81398D02*
Y85165D01*
X82706D01*
Y84784D02*
Y85165D01*
X81398Y85435D02*
X82706D01*
X81398D02*
Y85816D01*
X82706D01*
Y85435D02*
Y85816D01*
X81398Y86085D02*
X82706D01*
X81398D02*
Y86466D01*
X82706D01*
Y86085D02*
Y86466D01*
X81398Y86734D02*
X82706D01*
X81398D02*
Y87116D01*
X82706D01*
Y86734D02*
Y87116D01*
X81398Y87384D02*
X82706D01*
X81398D02*
Y87765D01*
X82706D01*
Y87384D02*
Y87765D01*
X81398Y88035D02*
X82706D01*
X81398D02*
Y88416D01*
X82706D01*
Y88035D02*
Y88416D01*
X81398Y88685D02*
X82706D01*
X81398D02*
Y89066D01*
X82706D01*
Y88685D02*
Y89066D01*
X81398Y89334D02*
X82706D01*
X81398D02*
Y89715D01*
X82706D01*
Y89334D02*
Y89715D01*
X81398Y89984D02*
X82706D01*
X81398D02*
Y90365D01*
X82706D01*
Y89984D02*
Y90365D01*
%TF.MD5,b1eb36a62cd678f3623d338e56a0a8fb*%
M02*
