G04*
G04 #@! TF.GenerationSoftware,Altium Limited,Altium Designer,23.8.1 (32)*
G04*
G04 Layer_Color=128*
%FSLAX44Y44*%
%MOMM*%
G71*
G04*
G04 #@! TF.SameCoordinates,1C6102A1-C030-4D01-BDD8-3087C58EC81D*
G04*
G04*
G04 #@! TF.FilePolarity,Positive*
G04*
G01*
G75*
%ADD23C,0.1270*%
D23*
X737500Y875000D02*
X747500D01*
X742500Y870000D02*
Y880000D01*
X737500Y810000D02*
X747500D01*
X742500Y805000D02*
Y815000D01*
X737500Y840000D02*
X747500D01*
X742500Y835000D02*
Y845000D01*
X737500Y910000D02*
X747500D01*
X742500Y905000D02*
Y915000D01*
X737500Y945000D02*
X747500D01*
X742500Y940000D02*
Y950000D01*
X765000Y767500D02*
X775000D01*
X770000Y762500D02*
Y772500D01*
X800000Y767500D02*
X810000D01*
X805000Y762500D02*
Y772500D01*
X900000Y767500D02*
X910000D01*
X905000Y762500D02*
Y772500D01*
X865000Y767500D02*
X875000D01*
X870000Y762500D02*
Y772500D01*
X935000Y767500D02*
X945000D01*
X940000Y762500D02*
Y772500D01*
X880000Y972500D02*
X890000D01*
X885000Y967500D02*
Y977500D01*
X957500Y810000D02*
X967500D01*
X962500Y805000D02*
Y815000D01*
X957500Y840000D02*
X967500D01*
X962500Y835000D02*
Y845000D01*
X957500Y910000D02*
X967500D01*
X962500Y905000D02*
Y915000D01*
X957500Y875000D02*
X967500D01*
X962500Y870000D02*
Y880000D01*
X957500Y945000D02*
X967500D01*
X962500Y940000D02*
Y950000D01*
X782500Y972500D02*
X792500D01*
X787500Y967500D02*
Y977500D01*
X820000Y972500D02*
X830000D01*
X825000Y967500D02*
Y977500D01*
X917500Y972500D02*
X927500D01*
X922500Y967500D02*
Y977500D01*
X832500Y767500D02*
X842500D01*
X837500Y762500D02*
Y772500D01*
M02*
