G04*
G04 #@! TF.GenerationSoftware,Altium Limited,Altium Designer,23.8.1 (32)*
G04*
G04 Layer_Color=65535*
%FSLAX44Y44*%
%MOMM*%
G71*
G04*
G04 #@! TF.SameCoordinates,1C6102A1-C030-4D01-BDD8-3087C58EC81D*
G04*
G04*
G04 #@! TF.FilePolarity,Positive*
G04*
G01*
G75*
%ADD10C,0.1524*%
%ADD11C,0.2540*%
%ADD12C,0.0762*%
G36*
X807883Y845155D02*
X805343D01*
Y841345D01*
X807883D01*
Y845155D01*
D02*
G37*
G36*
X902117Y903655D02*
X904657D01*
Y899845D01*
X902117D01*
Y903655D01*
D02*
G37*
D10*
X825790Y833765D02*
Y837764D01*
Y907236D02*
Y911235D01*
X884210D01*
Y833765D02*
Y837764D01*
X825790Y833765D02*
X884210D01*
Y907236D02*
Y911235D01*
D11*
X875197Y950236D02*
X872657Y952775D01*
X867579D01*
X865040Y950236D01*
Y940079D01*
X867579Y937540D01*
X872657D01*
X875197Y940079D01*
Y945157D01*
X870118D01*
X880275Y937540D02*
Y952775D01*
X887893D01*
X890432Y950236D01*
Y945157D01*
X887893Y942618D01*
X880275D01*
X885353D02*
X890432Y937540D01*
X895510Y952775D02*
Y937540D01*
X903128D01*
X905667Y940079D01*
Y950236D01*
X903128Y952775D01*
X895510D01*
X822697D02*
X812540D01*
Y945157D01*
X817618Y947697D01*
X820157D01*
X822697Y945157D01*
Y940079D01*
X820157Y937540D01*
X815079D01*
X812540Y940079D01*
X827775Y952775D02*
Y942618D01*
X832853Y937540D01*
X837932Y942618D01*
Y952775D01*
X744507Y780882D02*
Y796117D01*
X752124D01*
X754663Y793578D01*
Y788500D01*
X752124Y785961D01*
X744507D01*
X759742Y796117D02*
X764820D01*
X762281D01*
Y780882D01*
X759742D01*
X764820D01*
X782594Y793578D02*
X780055Y796117D01*
X774977D01*
X772438Y793578D01*
Y783422D01*
X774977Y780882D01*
X780055D01*
X782594Y783422D01*
X787673Y780882D02*
X792751D01*
X790212D01*
Y796117D01*
X787673Y793578D01*
X800368D02*
X802908Y796117D01*
X807986D01*
X810525Y793578D01*
Y791039D01*
X807986Y788500D01*
X810525Y785961D01*
Y783422D01*
X807986Y780882D01*
X802908D01*
X800368Y783422D01*
Y785961D01*
X802908Y788500D01*
X800368Y791039D01*
Y793578D01*
X802908Y788500D02*
X807986D01*
X825760Y796117D02*
X815604D01*
Y788500D01*
X820682D01*
X815604D01*
Y780882D01*
X830839D02*
X835917D01*
X833378D01*
Y796117D01*
X830839Y793578D01*
X853691Y796117D02*
X843534D01*
Y788500D01*
X848613Y791039D01*
X851152D01*
X853691Y788500D01*
Y783422D01*
X851152Y780882D01*
X846074D01*
X843534Y783422D01*
X868926D02*
Y793578D01*
X866387Y796117D01*
X861309D01*
X858770Y793578D01*
Y783422D01*
X861309Y780882D01*
X866387D01*
X863848Y785961D02*
X868926Y780882D01*
X866387D02*
X868926Y783422D01*
X881622Y780882D02*
Y796117D01*
X874005Y788500D01*
X884161D01*
X889240Y780882D02*
X894318D01*
X891779D01*
Y796117D01*
X889240Y793578D01*
X901936Y788500D02*
X912092D01*
X917171Y796117D02*
X922249D01*
X919710D01*
Y780882D01*
X917171D01*
X922249D01*
X929867D02*
X940023Y791039D01*
X955258Y793578D02*
X952719Y796117D01*
X947641D01*
X945102Y793578D01*
Y791039D01*
X947641Y788500D01*
X952719D01*
X955258Y785961D01*
Y783422D01*
X952719Y780882D01*
X947641D01*
X945102Y783422D01*
X970493Y793578D02*
X967954Y796117D01*
X962876D01*
X960337Y793578D01*
Y791039D01*
X962876Y788500D01*
X967954D01*
X970493Y785961D01*
Y783422D01*
X967954Y780882D01*
X962876D01*
X960337Y783422D01*
D12*
X812963Y915378D02*
X821427Y906914D01*
X812963D02*
X821427Y915378D01*
X812963Y911146D02*
X821427D01*
X817195Y906914D02*
Y915378D01*
M02*
